<svg width="146" height="147" viewBox="0 0 146 147" fill="none" xmlns="http://www.w3.org/2000/svg">
<g clip-path="url(#clip0_263_3007)">
<path d="M37.6351 25.9676L32.6265 18.2025C32.9295 24.6734 34.1782 30.8461 34.1782 30.8461L37.6305 25.9722L37.6351 25.9676Z" fill="#202560"/>
<path d="M119.796 37.3124L127.844 32.2229C120.673 32.5579 114.7 33.8199 114.7 33.8199L119.791 37.317L119.796 37.3124Z" fill="#006575"/>
<path d="M43.7683 66.8813C43.7683 66.8813 35.9135 51.7779 33.1499 31.1122C33.1315 30.9746 40.9404 19.8409 48.9054 13.1635C61.2499 2.81 68.9762 -0.168457 68.9762 -0.168457C105.62 5.78387 128.381 32.1815 127.889 32.2229C74.2418 36.4358 43.7683 66.8859 43.7683 66.8859" fill="#058094"/>
<path d="M26.2041 109.02L18.0876 114.16C24.5606 113.857 31.1667 112.65 31.1667 112.65L26.2041 109.02Z" fill="#A5AF1C"/>
<path d="M102.319 79.7818C102.319 79.7818 110.174 94.8852 112.937 115.551C112.956 115.689 105.147 126.822 97.1818 133.5C84.8373 143.853 77.111 146.832 77.111 146.832C40.4676 140.879 17.6193 114.206 18.1106 114.169C71.7582 109.956 102.319 79.7818 102.319 79.7818Z" fill="#D4DE25"/>
<path d="M108.856 120.934L113.814 128.566C113.511 122.095 112.262 115.923 112.262 115.923L108.856 120.93V120.934Z" fill="#6B9B31"/>
<path d="M79.3743 44.3845C79.3743 44.3845 94.4825 36.5322 115.155 33.7694C115.292 33.7511 126.43 41.5575 133.109 49.5199C143.466 61.8606 146.445 69.5844 146.445 69.5844C140.491 106.216 113.81 129.057 113.773 128.566C109.559 74.9355 79.3743 44.3845 79.3743 44.3845Z" fill="#8BC33F"/>
<path d="M66.4696 102.205C66.4696 102.205 51.7103 109.755 31.0336 112.517C30.8958 112.536 20.0157 105.207 13.3362 97.2487C2.97941 84.9081 0 77.1843 0 77.1843C5.95422 40.5524 32.6357 17.7115 32.6725 18.2025C36.8868 71.8331 66.4696 102.205 66.4696 102.205Z" fill="#293374"/>
</g>
<defs>
<clipPath id="clip0_263_3007">
<rect width="146" height="147" fill="white"/>
</clipPath>
</defs>
</svg>
